<?xml version="1.0" encoding="UTF-8"?>
<svg width="978px" height="342px" viewBox="0 0 978 342" version="1.1" xmlns="http://www.w3.org/2000/svg" xmlns:xlink="http://www.w3.org/1999/xlink">
    <!-- Generator: Sketch 54.1 (76490) - https://sketchapp.com -->
    <title>Logo</title>
    <desc>Created with Sketch.</desc>
    <g id="Page-1" stroke="none" stroke-width="1" fill="none" fill-rule="evenodd">
        <g id="PINEcreative.ROSE---" transform="translate(-216.000000, -120.000000)">
            <g id="Page-1">
                <g id="Logo" transform="translate(199.000000, 78.000000)">
                    <text id="ROSE---" font-family="Roboto-Light, Roboto" font-size="200" font-weight="300" fill="#4B4A4B">
                        <tspan x="0.3882" y="186.0028">ROSE   </tspan>
                    </text>
                    <text id="creative." font-family="Roboto-Thin, Roboto" font-size="105" font-style="condensed" font-weight="300" fill="#4B4A4B">
                        <tspan x="630.3125" y="381.244925">c</tspan>
                        <tspan x="683.581543" y="381.244925" letter-spacing="-0.945">r</tspan>
                        <tspan x="716.782051" y="381.244925">eati</tspan>
                        <tspan x="879.972969" y="381.244925" letter-spacing="-0.735">v</tspan>
                        <tspan x="928.713066" y="381.244925">e.</tspan>
                    </text>
                    <g id="Group-6" transform="translate(506.000000, 44.000000)">
                        <path d="M7.43496648,104.086227 C7.43496648,108.033056 8.18368231,111.732556 9.68490975,115.188519 C11.1870861,118.641639 13.2197215,121.663592 15.7847138,124.251537 C18.3487571,126.843272 21.4119443,128.878756 24.9780712,130.357987 C28.5432491,131.836271 32.391212,132.576361 36.5219598,132.576361 C42.0239299,132.576361 46.9347086,131.293286 51.2514492,128.721451 C55.5672408,126.152459 59.2206704,122.96562 62.1026096,118.486229 C65.4371944,113.309393 66.2808045,102.096229 66.3766478,96.2408978 C66.4601547,91.2147322 65.6412171,75.873745 65.6412171,75.873745 C65.6412171,75.873745 42.038164,75.4975407 34.7265601,75.5979882 C30.8188138,75.6491595 27.2289634,76.9237057 23.903868,78.4654801 C20.5787726,80.0082022 17.6920887,82.0124141 15.2447653,84.4781161 C12.7983909,86.9447656 10.8843734,89.8738527 9.50555957,93.2634822 C8.12389892,96.6578497 7.43496648,100.265431 7.43496648,104.086227 M65.6080041,68.9163339 L92,68.9163339 L92,76.339973 L73.0439195,76.339973 L73.0439195,89.0153109 C73.1653842,93.4899629 73.1653842,98.3351335 73.0439195,103.555561 C72.9186591,108.775041 71.8890562,113.431635 69.6590407,118.153616 C69.6590407,118.153616 66.6784116,124.212685 65.4096751,125.669174 C63.8391748,127.470595 58.184425,133.662331 53.095245,136.196262 C48.0013203,138.732087 42.4756266,140 36.5134193,140 C31.4194946,140 26.670985,139.040063 22.262197,137.123979 C17.8543579,135.206948 14.0035482,132.640799 10.7135637,129.420793 C7.41978339,126.205525 4.81208871,122.398944 2.88668386,118.006735 C0.96127901,113.616421 0,108.883069 0,103.807627 C0,99.3547704 0.746817947,95.1160753 2.23760701,91.0943847 C3.73219185,87.0745893 5.84928314,83.4850125 8.58413615,80.3303923 C11.3208871,77.1748245 14.5264157,74.5461322 18.1969263,72.4414727 C21.8683858,70.3396561 25.8302218,68.5003296 30.2371119,68.1743491 C39.0575348,67.5204927 65.6080041,68.9163339 65.6080041,68.9163339" id="Fill-2" fill="#4B4A4B"></path>
                        <path d="M82,137.926567 L76.0734991,142 L17.5961062,46.6463041 C15.3580673,42.9424953 13.7733807,39.1195748 12.8411009,35.1661986 C11.9097666,31.2184943 11.7509198,27.3303459 12.3692879,23.5026987 C12.9867106,19.6778875 14.4068772,16.0950812 16.6288422,12.7646784 C18.8517528,9.43049428 22.0003246,6.53305329 26.0745576,4.06290213 C29.5294769,1.96521157 33.0808389,0.700358047 36.722025,0.266450897 C40.3622657,-0.165565591 43.9136277,-0.071977774 47.3704381,0.545323684 C50.8253574,1.1645158 54.0646988,2.14955121 57.0931899,3.50704722 C60.1160079,4.86643389 62.8012763,6.28443111 65.1489951,7.76482021 L62.0013689,14.0607279 C59.7784583,12.8270703 57.3995374,11.6236633 54.8712248,10.4486163 C52.3381846,9.27735058 49.7465224,8.41237228 47.092456,7.8574627 C44.4364987,7.30255312 41.7512302,7.14751875 39.0375963,7.39330494 C36.3201803,7.64476311 33.6661139,8.5692973 31.0735062,10.1716342 C24.4066655,14.3689059 20.7040207,19.6145503 19.9636809,25.910458 C19.22145,32.204475 20.7153669,38.3784349 24.4416496,44.4247751 L82,137.926567 Z" id="Fill-4" fill="#E65760"></path>
                    </g>
                    <text id="PINE" font-family="Roboto-Light, Roboto" font-size="200" font-weight="300" fill="#4B4A4B">
                        <tspan x="165.2568" y="354.9149">PINE</tspan>
                    </text>
                </g>
            </g>
        </g>
    </g>
</svg>